<?xml version="1.0"?><svg width="640" height="480" xmlns="http://www.w3.org/2000/svg" xmlns:xlink="http://www.w3.org/1999/xlink">
 <!-- Created with SVG-edit - http://svg-edit.googlecode.com/ -->
 <g>
  <title>Layer 1</title>
  <defs>
   <symbol viewBox="0 0 600.000000 491.000000" preserveAspectRatio="xMidYMid meet" id="svg_3">
    <g id="svg_1" transform="translate(0.000000,491.000000) scale(0.100000,-0.100000)" fill="#000000">
     <path id="svg_2" d="m2488,3586c-3,-959 -5,-1078 -18,-1065c-135,133 -306,239 -471,292c-172,57 -437,61 -619,11c-288,-80 -519,-260 -698,-544c-69,-110 -172,-376 -156,-402c3,-4 0,-8 -6,-8c-6,0 -9,-3 -6,-8c2,-4 -1,-38 -8,-74c-32,-168 -25,-456 14,-623c6,-27 13,-57 15,-65c4,-19 49,-154 67,-200c25,-67 100,-194 160,-274c142,-188 313,-318 518,-393c142,-53 238,-68 415,-68c191,0 267,15 427,81c54,23 200,106 224,129c7,5 29,24 50,42c22,17 50,41 64,53l25,22l3,-130l3,-129l298,0l299,0l0,880l0,879l21,22l22,21l17,-21c82,-103 258,-320 262,-324c3,-3 23,-27 45,-55c22,-27 44,-55 50,-62c14,-17 20,-24 103,-128c40,-49 81,-99 90,-110c9,-11 32,-40 50,-65c19,-25 39,-49 46,-55c6,-5 27,-30 46,-55c43,-55 62,-79 75,-94c6,-6 76,-92 155,-191c79,-99 168,-209 198,-245c79,-96 77,-93 203,-251l117,-146l411,0c386,0 410,1 398,17c-12,17 -63,80 -127,155c-19,23 -51,61 -70,85c-19,24 -40,48 -45,54c-6,6 -42,49 -80,96c-38,47 -74,90 -80,96c-5,6 -26,30 -45,54c-40,50 -102,124 -134,160c-12,14 -51,61 -86,105c-36,44 -67,82 -70,85c-3,3 -48,57 -100,120c-52,63 -97,117 -100,120c-4,4 -96,115 -215,259c-11,13 -27,32 -35,41c-8,9 -33,38 -55,65c-22,28 -47,59 -57,70c-9,11 -44,54 -78,95c-34,41 -71,86 -83,100c-13,14 -52,61 -87,105c-36,43 -72,86 -80,95c-25,27 -62,72 -125,150c-33,41 -64,78 -70,82c-6,4 391,409 909,927l919,919l-409,0l-409,0l-190,-193c-104,-106 -302,-309 -440,-450c-137,-141 -299,-307 -360,-369c-60,-61 -199,-203 -307,-314l-198,-203l-1,63c0,35 0,462 0,951c-1,488 -4,888 -7,888c-4,1 -139,2 -299,3l-293,2l-2,-1080zm-518,-1275c149,-40 250,-100 344,-203c90,-99 170,-258 191,-383c4,-22 9,-51 12,-65c17,-90 5,-322 -21,-415c-2,-5 -7,-23 -11,-40c-16,-59 -74,-174 -116,-232c-90,-122 -191,-197 -331,-245c-84,-29 -105,-32 -218,-32c-139,-1 -170,3 -255,33c-83,29 -158,77 -229,146c-124,120 -202,275 -234,465c-10,61 -9,294 1,350c5,25 10,54 12,65c2,11 10,38 18,61c95,263 270,433 507,493c85,21 253,22 330,2z"/>
    </g>
   </symbol>
  </defs>
  <use id="svg_4" xlink:href="#svg_3" transform="matrix(0.266667 0 0 0.266667 0 0)" y="555.000033" x="813.750049" fill="#00ff7f"/>
 </g>
</svg>